<?xml version="1.0" encoding="UTF-8"?>
<svg id="Layer_2" data-name="Layer 2" xmlns="http://www.w3.org/2000/svg" version="1.1" viewBox="0 0 220.5 220.7">
  <defs>
    <style>
      .cls-1 {
        fill: #fff;
        stroke-width: 0px;
      }
    </style>
  </defs>
  <g id="Layer_1-2" data-name="Layer 1-2">
    <path class="cls-1" d="M-420.6-62.9c-5.2,5.1-10.3,10.4-15.8,15.3-1.4,1.2-3.9,1.7-5.9,1.7h-78c-26,0-9.6,1.5-9.6,9.6V111.2c0,6.6,2,8.6,8.7,8.6,48.3,0,96.7,0,145,.1h4c6.2-.1,8-1.9,8.1-8.1,0-23.3.5-46.7-.2-70-.3-10.1,1.6-18.1,10-24.1,2.8-2,4.9-4.9,8.1-8.4.1,3,.3,4.7.3,6.4v107c0,9.8-5.3,15.3-15.1,15.3h-171.5c-10.6,0-15.6-5.1-15.6-15.7V-49.7c.1-9.5,4.9-14.4,14.6-14.4h112.4c.2.4.3.8.4,1.2h0Z"/>
    <path class="cls-1" d="M-355.8-23.7c-32.2,31.5-65,63.7-97.9,95.8-1.6,1.6-4.1,2.7-6.4,3.2-10.6,2.6-21.3,4.9-32.8,7.4,2.8-12.4,5.3-24,8-35.5.3-1.2,1.3-2.3,2.1-3.2,32.1-33.2,64.1-66.3,96.1-99.2,10.3,10.5,20.5,20.9,30.9,31.6h0Z"/>
    <path class="cls-1" d="M-380-62c5.9-5.9,11.8-12,17.9-17.8,4.4-4.1,9.8-4,14.3.3,5.9,5.6,11.6,11.4,17.3,17.3,4,4.2,4.1,10.1,0,14.4-5.8,6.2-11.9,12.1-17.6,17.9-10.7-10.7-21.1-21.2-31.9-32h0Z"/>
  </g>
  <g>
    <rect class="cls-1" x="2.5" y="148.2" width="41.2" height="49.4"/>
    <rect class="cls-1" x="59.7" y="49.4" width="41.2" height="148.2"/>
    <rect class="cls-1" x="116.9" width="41.2" height="197.6"/>
    <rect class="cls-1" x="174.1" y="148.2" width="41.2" height="49.4"/>
  </g>
</svg>