<?xml version="1.0" encoding="UTF-8"?><svg id="Layer_2" xmlns="http://www.w3.org/2000/svg" width="557.39" height="557.77" viewBox="0 0 557.39 557.77"><defs><style>.cls-1{fill:#000;stroke-width:0px;}</style></defs><g id="Layer_2-2"><path class="cls-1" d="M333.25,5.34c-2.21,11.12-4.28,21.51-6.48,32.54-31.99-5.97-63.74-6.02-95.77,0-2.2-11.12-4.29-21.65-6.46-32.57,36.45-7.06,72.26-7.13,108.7.02Z"/><path class="cls-1" d="M333.35,552.48c-36.42,7.05-72.19,7.04-108.71.04,2.16-10.99,4.25-21.63,6.19-31.54,16.62,1.23,32.49,3.32,48.37,3.31,15.73,0,31.45-2.13,47.8-3.37,1.95,9.71,4.07,20.25,6.34,31.55Z"/><path class="cls-1" d="M73.57,141.65c-8.41-5.65-17.22-11.57-26.6-17.86,20.53-30.69,46.01-55.95,76.72-76.87,6.2,9.24,12.2,18.18,17.95,26.75-12.17,10.48-24.86,20.2-36.08,31.4-11.25,11.23-21.04,23.93-31.99,36.59Z"/><path class="cls-1" d="M519.52,231.2c11.21-2.22,21.62-4.28,32.6-6.46,7.16,36.23,6.88,72.16.05,108.71-10.97-2.17-21.48-4.25-32.68-6.46,6.03-31.9,6.22-63.62.03-95.79Z"/><path class="cls-1" d="M37.93,326.73c-11.01,2.18-21.42,4.24-32.62,6.45-6.98-36.24-7.11-72.12-.17-108.66,10.98,2.15,21.49,4.22,32.61,6.4-6.03,31.96-5.92,63.54.18,95.81Z"/><path class="cls-1" d="M47.01,433.91c9.48-6.36,18.42-12.35,27.65-18.54,18.35,27.03,40.83,49.46,67.71,67.74-6.19,9.25-12.18,18.2-18.49,27.63-30.65-20.6-56-46.01-76.88-76.83Z"/><path class="cls-1" d="M482.72,415.62c9.46,6.36,18.4,12.38,27.61,18.58-20.65,30.61-45.92,55.97-76.4,76.51-6.12-9.2-12.09-18.16-18.36-27.57,26.56-18.3,48.91-40.57,67.15-67.52Z"/><path class="cls-1" d="M416.15,73.67c5.56-8.33,11.44-17.16,17.58-26.37,30.58,20.56,55.88,45.87,76.66,76.7-9.22,6.18-18.26,12.25-26.64,17.87-10.64-12.27-20.48-24.86-31.65-36.14-11.07-11.19-23.48-21.05-35.95-32.06Z"/></g></svg>