<?xml version="1.0" encoding="UTF-8"?><svg id="Layer_2" xmlns="http://www.w3.org/2000/svg" width="744.49" height="615.68" viewBox="0 0 744.49 615.68"><defs><style>.cls-1{fill:#000;stroke-width:0px;}</style></defs><g id="Layer_2-2"><path class="cls-1" d="M372.01,615.67c-96,0-191.99.02-287.99-.01-25.95,0-47.9-9.21-64.9-29.1-11.45-13.4-17.73-29.04-18.82-46.68-.2-3.16-.22-6.33-.22-9.5C.08,382.05.14,233.72,0,85.39c-.02-17.44,3.53-33.66,13.29-48.21C29.59,12.87,52.84.56,81.76.39,154.42-.03,227.1-.25,299.75.48c33.01.33,57.8,16.02,72.92,45.93,2.68,5.31,5.37,10.62,8.34,15.77.74,1.28,2.46,2.25,3.93,2.76,1.34.46,2.97.11,4.47.11,90.5,0,180.99-.12,271.49.06,32.27.06,57.17,13.86,73.45,42.04,6.06,10.49,9.39,21.97,9.86,34.16.11,2.83.19,5.66.19,8.5,0,127-.07,253.99.08,380.99.02,19.83-4.92,37.76-17.23,53.42-11.76,14.96-26.72,25.15-45.56,28.73-8.11,1.54-16.46,2.59-24.7,2.6-95,.18-189.99.11-284.99.11ZM372.18,583.05c95.15,0,190.31,0,285.46,0,2.83,0,5.67,0,8.5-.12,25.01-1.05,45.93-22.22,45.96-47.32.13-108.65.08-217.3.01-325.95,0-10.28-3.47-19.62-9.66-27.78-10.13-13.36-23.89-19.66-40.5-19.67-84.82-.05-169.64-.07-254.46.05-8.57.01-14.48-3.04-18.34-10.89-11.54-23.47-23.33-46.81-35.11-70.16-4.77-9.45-8.87-19.4-14.84-28.03-9.7-14.02-23.98-20.31-41.07-20.3-71.66.04-143.31.02-214.97.03-1.83,0-3.67.08-5.49.2-25.46,1.73-45.28,22.43-45.29,47.93-.08,151.31-.05,302.62-.03,453.93,0,10.65,3.44,20.26,9.87,28.65,10.43,13.61,24.41,19.51,41.51,19.49,96.15-.14,192.31-.07,288.46-.07ZM712.95,144.96c-1.68-6.3-2.47-12.6-4.98-18.12-9.04-19.95-25.43-29.44-46.82-29.5-85.32-.24-170.64-.1-255.96-.1-.83,0-1.67.02-2.5,0-3.19-.05-3.77,1.25-2.34,4.04,3.84,7.5,7.95,14.91,11.18,22.68,2.12,5.1,5.33,6.03,10.32,6.02,79.32-.13,158.64-.21,237.96.07,9.19.03,18.63,1.41,27.48,3.86,8.46,2.35,16.31,6.92,25.65,11.05Z"/></g></svg>