<?xml version="1.0" encoding="UTF-8"?><svg id="Layer_2" xmlns="http://www.w3.org/2000/svg" width="813.03" height="773.91" viewBox="0 0 813.03 773.91"><defs><style>.cls-1{fill:#000;stroke-width:0px;}</style></defs><g id="Layer_2-2"><path class="cls-1" d="M148.16,331.85c65.17,3.08,111,31.79,139.16,87.61,9.44,18.71,13.63,39.12,14.17,60.06.4,15.25-3.35,29.87-7.84,44.39-6.7,21.7-15.84,42.37-25.57,62.81-16.96,35.66-36.27,70.06-56.82,103.75-15.4,25.23-31.8,49.86-47.38,74.98-6.38,10.28-18.98,11.63-25.97.32-21.7-35.1-43.96-69.86-65-105.35-13.62-22.96-26.1-46.66-37.97-70.58-13.3-26.79-25.17-54.25-32.04-83.59-4.42-18.88-3.53-37.66.82-56.29,8.06-34.56,25.98-63.05,53.85-85.12,18.28-14.48,38.7-24.6,61.74-28.84,10.42-1.92,21-3.04,28.85-4.15ZM150.5,735.31c1.43-1.84,2.5-2.99,3.3-4.3,15.92-25.86,32.23-51.48,47.61-77.66,22.87-38.91,44.47-78.54,60.53-120.86,4.39-11.55,7.86-23.54,10.63-35.59,2.98-12.97,1.4-26.07-1.23-39.1-3.32-16.48-9.72-31.56-19.4-45.16-18.46-25.94-43.09-42.71-74.35-49.83-19.75-4.5-39.44-4.29-58.71.98-25.99,7.1-47.74,21.28-64.67,42.61-17.28,21.79-26.03,46.63-26.87,74.22-.44,14.43,3.79,28.12,8.44,41.65,11.31,32.92,26.73,63.97,43.62,94.26,16.07,28.83,33.06,57.16,49.89,85.56,6.54,11.03,13.78,21.65,21.19,33.22Z"/><path class="cls-1" d="M669.85,341.41c-7.2-11.37-13.76-21.62-20.21-31.95-24.06-38.52-46.82-77.77-65.11-119.41-7.85-17.87-15.49-36.08-17.49-55.71-1.04-10.14-.86-20.7.72-30.76,4.85-30.96,20.02-56.27,44.28-76.15,12.72-10.42,27-18.11,42.69-22.55,21.25-6,42.71-6.56,64.45-1.15,25.82,6.42,47.08,19.8,64.29,39.7,15.02,17.37,23.97,37.66,28.09,60.34,4.31,23.74-1.49,45.66-9.65,67.55-12.17,32.63-28.26,63.35-45.67,93.34-14.99,25.82-31.15,50.96-46.91,76.33-3.19,5.13-7.06,9.58-6.53,16.49.41,5.37-5.86,10.79-11.57,10.93-9.82.23-19.66.26-29.48.07-7.43-.15-12.76-5.79-12.87-13.06-.11-7.11,5.74-13.51,12.89-13.99,2.3-.15,4.62-.02,8.09-.02ZM689.67,321.3c6.98-11.19,13.2-21.04,19.3-30.96,24.66-40.11,48.49-80.69,65.96-124.57,4.57-11.48,8.31-23.55,10.39-35.69,2.35-13.76-.88-27.39-5.98-40.44-11.75-30.08-33.04-50.02-64.12-58.5-31.67-8.65-61.22-2.78-86.61,18.03-28.87,23.66-44.32,62.65-29.88,101.9,7.85,21.35,17.01,42.41,27.65,62.5,15.6,29.45,33.01,57.95,49.79,86.77,3.94,6.76,8.47,13.18,13.51,20.98Z"/><path class="cls-1" d="M403.4,773.78c-8.49,0-16.99.19-25.47-.05-8.74-.24-14.01-5.37-14.1-13.17-.09-8.16,5.24-13.76,14.14-13.89,17.15-.24,34.3-.23,51.45.02,7.62.11,12.4,4.47,14.15,11.67,1.06,4.35-2.1,11.21-7.09,13.67-2.68,1.32-6.04,1.67-9.11,1.76-7.99.23-15.98.08-23.97.08,0-.03,0-.05,0-.08Z"/><path class="cls-1" d="M613.8,773.78c-8.49,0-16.99.2-25.47-.06-8.64-.26-14.13-5.61-14.21-13.25-.07-7.82,5.7-13.7,14.42-13.82,16.98-.23,33.97-.19,50.95,0,7.32.08,12.91,4.6,14.33,10.79,1.27,5.5-1.3,11.49-6.99,14.62-2.31,1.27-5.34,1.62-8.06,1.69-8.32.21-16.65.08-24.97.08,0-.02,0-.03,0-.05Z"/><path class="cls-1" d="M508.48,773.77c-8.49,0-16.99.2-25.48-.05-8.62-.26-13.97-5.57-14.01-13.34-.03-7.78,5.38-13.55,13.89-13.68,17.31-.28,34.64-.24,51.95,0,7.13.1,11.97,4.33,13.81,10.82,1.34,4.76-1.38,11.38-6.69,14.27-2.6,1.42-5.96,1.87-9,1.97-8.15.26-16.32.09-24.48.09,0-.02,0-.05,0-.07Z"/><path class="cls-1" d="M298.29,773.81c-8.48,0-16.97-.12-25.45.03-9.76.17-14.43-7.51-14.28-13.65.2-8.04,5.58-13.45,14.54-13.56,16.8-.2,33.61-.19,50.41,0,8.45.1,12.63,3.84,14.64,12.1,1.07,4.4-1.78,10.68-6.82,13.2-2.67,1.34-6.01,1.74-9.07,1.83-7.98.24-15.97.08-23.96.08,0-.01,0-.03,0-.04Z"/><path class="cls-1" d="M362.14,413.65c1.91-10.6,6.02-21.62,13.01-31.14,5.41-7.36,11.66-14.24,18.29-20.55,8.22-7.82,20.78-3.64,23.16,7.36,1.1,5.1-1.04,9.52-4.89,12.79-7.28,6.17-13.58,13.13-17.57,21.83-2.33,5.08-3.98,10.48-5.86,15.76-2.22,6.22-8.75,10.36-14.68,9.23-6.88-1.32-11.69-7.24-11.46-15.28Z"/><path class="cls-1" d="M812.45,656.01c-3.39,10.85-6.27,21.9-10.35,32.49-2.88,7.48-7.07,14.54-11.25,21.43-4.62,7.63-12.88,9.43-19.7,4.96-6.27-4.11-7.52-12.51-2.99-19.82,8.01-12.94,13.6-26.79,16.06-41.88,1.21-7.4,7.82-12.59,14.76-11.84,7.35.79,12.54,6.79,13.47,14.65Z"/><path class="cls-1" d="M745.25,522.62c.1,10.42-9.87,16.81-19.39,12.25-14.5-6.93-29.62-11.37-45.7-12.5-6.75-.47-12.28-6.86-12.18-13.55.11-6.95,6.03-14.03,12.73-13.32,11.49,1.22,22.98,3.14,34.21,5.86,7.3,1.77,14.2,5.28,21.14,8.35,5.46,2.42,9.33,6.32,9.2,12.9Z"/><path class="cls-1" d="M774.28,542.48c1.67.96,5.75,2.07,7.92,4.73,12.66,15.53,22.01,32.87,26.19,52.65,1.63,7.7-2.14,13.91-9.04,15.87-7.3,2.07-13.98-1.24-16.78-8.58-2.58-6.78-4.25-13.99-7.49-20.43-3.9-7.76-8.88-15-13.7-22.26-3.17-4.78-3.59-9.66-1.22-14.58,2.34-4.84,6.59-7.24,14.11-7.4Z"/><path class="cls-1" d="M741.59,726.26c6.44.84,10.64,3.82,12.74,9.58,2.09,5.73,1.01,11.87-4.36,14.96-9.84,5.67-19.99,10.95-30.5,15.22-7.42,3.02-15.66,4.01-23.49,6.06-6.73,1.77-14.27-2.7-16.45-9.94-1.85-6.16,2.34-14.1,8.67-15.93,7.94-2.31,16.12-3.88,23.88-6.67,6.93-2.5,13.39-6.27,20.11-9.38,3.08-1.42,6.27-2.6,9.41-3.89Z"/><path class="cls-1" d="M497.34,495.16c8.82,0,17.63-.12,26.45.03,7.81.13,13.23,5.54,13.34,12.97.11,7.74-5.27,13.98-12.96,14.08-17.79.23-35.6.2-53.39,0-7.51-.08-13.64-6.81-13.4-13.95.24-7.34,5.87-12.95,13.52-13.08,8.81-.15,17.63-.04,26.45-.04Z"/><path class="cls-1" d="M602.77,495.17c8.83,0,17.67-.12,26.5.03,7.28.12,12.69,5.4,12.94,12.26.3,8.09-4.57,14.56-12.2,14.7-18.32.33-36.66.31-54.99-.02-6.86-.12-12.81-7.41-12.45-13.92.4-7.24,5.93-12.86,13.2-13,9-.17,18-.04,27-.05Z"/><path class="cls-1" d="M478.1,368.54c-8.83,0-17.66.15-26.48-.04-7.93-.17-12.94-5.49-12.96-13.28-.02-7.52,5.36-13.66,12.86-13.75,17.82-.22,35.64-.19,53.46-.01,7.16.07,13.22,6.67,13.22,13.66,0,7.48-5.43,13.2-13.12,13.37-8.99.19-17.99.04-26.98.05Z"/><path class="cls-1" d="M583.52,368.55c-8.83,0-17.66.15-26.48-.04-8.16-.17-13.32-5.62-13.26-13.58.05-7.25,5.83-13.43,13.26-13.5,17.66-.16,35.31-.16,52.97,0,7.55.07,13.48,6.58,13.34,14-.14,7.56-5.42,12.91-13.34,13.06-8.82.18-17.66.04-26.48.05Z"/><path class="cls-1" d="M380.72,453.03c6.82-.12,10.76,2.51,13.18,7.03,7.3,13.62,18.1,23.35,31.88,30.17,6.28,3.1,8.81,11.84,5.87,18.01-2.85,5.98-10.17,8.78-17.02,6.38-2.32-.82-4.65-1.75-6.78-2.97-16.3-9.33-29.32-21.93-37.82-38.84-4.69-9.33,1.85-19.81,10.68-19.78Z"/><path class="cls-1" d="M204.98,773.67c-4.83,0-9.67.25-14.48-.06-6.96-.44-12.21-5.87-12.48-12.4-.29-7.08,4.23-13.61,11.24-14.05,10.6-.66,21.3-.68,31.9.02,7.05.47,11.3,6.94,10.94,14.27-.31,6.42-5.36,11.68-12.15,12.13-4.97.32-9.98.06-14.98.06,0,0,0,.02,0,.03Z"/><path class="cls-1" d="M237.34,483.41c.38,47.5-38.92,86.88-87.1,86.5-47.59-.37-86.32-38.7-86.26-86.96.06-47.9,38.57-86.72,86.98-86.65,49.73.08,87.19,40.93,86.39,87.11ZM150.97,423.92c-32.62-1.43-59.69,27.53-59.7,58.87,0,32.43,26.62,59.82,59.48,59.83,32.57,0,58.68-26.38,59.5-58.88.78-30.87-26.03-61.03-59.29-59.82Z"/><path class="cls-1" d="M689.35,195.77c-39.07.34-72.3-31.99-72.19-72.37.11-40.54,33.49-72.36,72.53-72.16,39.82.2,72.59,32.79,72.29,72.5-.3,40-32.97,72.55-72.64,72.03ZM689.22,168.44c23.98.65,45.36-18.58,45.41-44.71.05-25.68-20.07-45.1-45.02-45.11-24.97-.02-45.28,20.19-45.21,44.98.07,24.75,20.08,44.77,44.83,44.84Z"/></g></svg>