<?xml version="1.0" encoding="UTF-8"?>
<svg id="Layer_2" data-name="Layer 2" xmlns="http://www.w3.org/2000/svg" version="1.1" xmlns:xlink="http://www.w3.org/1999/xlink" viewBox="0 0 81.3 75.9">
  <defs>
    <style>
      .cls-1 {
        fill: none;
      }

      .cls-1, .cls-2 {
        stroke-width: 0px;
      }

      .cls-3 {
        clip-path: url(#clippath);
      }

      .cls-2 {
        fill: #fff;
      }
    </style>
    <clipPath id="clippath">
      <rect class="cls-1" width="81.3" height="75.9"/>
    </clipPath>
  </defs>
  <g id="Layer_2-2" data-name="Layer 2-2">
    <g id="Layer_1-2" data-name="Layer 1-2">
      <g id="Grupo_79738" data-name="Grupo 79738">
        <g class="cls-3">
          <g id="Grupo_79738-2" data-name="Grupo 79738-2">
            <path id="Trazado_54959" data-name="Trazado 54959" class="cls-2" d="M79.6,68.1l-10.4-8.2c-1.3-1-3-1.2-4.5-.5l-2.3-1.8c12.5-15.1,10.4-37.6-4.7-50.1C42.6-5.1,20.1-3,7.6,12.1-4.9,27.3-2.8,49.7,12.3,62.2c13.8,11.5,34,10.8,47.1-1.5l2.7,2.1c0,1.5.5,2.9,1.7,3.9l10.4,8.2c1.9,1.5,4.7,1.2,6.2-.7s1.2-4.7-.7-6.2h0ZM35.2,61.6c-14.6,0-26.4-11.8-26.4-26.4s11.8-26.4,26.4-26.4,26.4,11.8,26.4,26.4-11.8,26.4-26.4,26.4"/>
          </g>
        </g>
      </g>
    </g>
  </g>
</svg>