<?xml version="1.0" encoding="UTF-8"?><svg id="Layer_2" xmlns="http://www.w3.org/2000/svg" width="800" height="700" viewBox="0 0 800 700"><defs><style>.cls-1{fill:#fff;stroke-width:0px;}</style></defs><g id="Layer_1-2"><path class="cls-1" d="M366.67,566.67c0,18.41,14.92,33.33,33.33,33.33s33.33-14.92,33.33-33.33h-66.67ZM400,400h33.33c0-8.84-3.51-17.32-9.76-23.57l-23.57,23.57ZM283.33,283.33l-21.95-25.09c-6.94,6.08-11.06,14.76-11.36,23.98-.31,9.22,3.22,18.16,9.74,24.68l23.57-23.57ZM416.67,166.67l25.31-21.69c-5.79-6.76-14.05-10.92-22.92-11.55-8.88-.64-17.64,2.3-24.34,8.16l21.95,25.09ZM616.67,333.33c18.41,0,33.33-14.92,33.33-33.33s-14.92-33.33-33.33-33.33v66.67ZM266.67,533.33c0,55.23-44.77,100-100,100v66.67c92.05,0,166.67-74.62,166.67-166.67h-66.67ZM166.67,633.33c-55.23,0-100-44.77-100-100H0c0,92.05,74.62,166.67,166.67,166.67v-66.67ZM66.67,533.33c0-55.23,44.77-100,100-100v-66.67C74.62,366.67,0,441.29,0,533.33h66.67ZM166.67,433.33c55.23,0,100,44.77,100,100h66.67c0-92.05-74.62-166.67-166.67-166.67v66.67ZM433.33,566.67v-166.67h-66.67v166.67h66.67ZM423.57,376.43l-116.67-116.67-47.14,47.14,116.67,116.67,47.14-47.14ZM305.28,308.42l133.33-116.67-43.9-50.17-133.33,116.67,43.9,50.17ZM391.36,188.36c17.12,19.98,48.75,55.2,87.07,85.65,37.13,29.51,86.41,59.32,138.24,59.32v-66.67c-28.17,0-62.23-17.41-96.76-44.85-33.34-26.49-61.72-57.93-77.93-76.85l-50.62,43.39ZM733.33,533.33c0,55.23-44.77,100-100,100v66.67c92.05,0,166.67-74.62,166.67-166.67h-66.67ZM633.33,633.33c-55.23,0-100-44.77-100-100h-66.67c0,92.05,74.62,166.67,166.67,166.67v-66.67ZM533.33,533.33c0-55.23,44.77-100,100-100v-66.67c-92.05,0-166.67,74.62-166.67,166.67h66.67ZM633.33,433.33c55.23,0,100,44.77,100,100h66.67c0-92.05-74.62-166.67-166.67-166.67v66.67ZM533.33,66.67v66.67c36.82,0,66.67-29.85,66.67-66.67h-66.67ZM533.33,66.67h-66.67c0,36.82,29.85,66.67,66.67,66.67v-66.67ZM533.33,66.67V0c-36.82,0-66.67,29.85-66.67,66.67h66.67ZM533.33,66.67h66.67c0-36.82-29.85-66.67-66.67-66.67v66.67Z"/></g></svg>