<?xml version="1.0" encoding="UTF-8"?><svg id="Layer_2" xmlns="http://www.w3.org/2000/svg" width="666.67" height="566.67" viewBox="0 0 666.67 566.67"><defs><style>.cls-1{fill:none;stroke:#fff;stroke-linecap:round;stroke-linejoin:round;stroke-width:66.67px;}</style></defs><g id="Layer_1-2"><path class="cls-1" d="M33.33,150l90.73,75.61c5.99,4.99,13.54,7.73,21.34,7.73h375.86c7.8,0,15.35-2.73,21.34-7.73l90.73-75.61M150,350h.33M516.67,350h.33M205.36,33.33h255.96c23.92,0,46.01,12.82,57.88,33.59l96.57,169c11.51,20.15,17.57,42.95,17.57,66.15v197.92c0,18.41-14.92,33.33-33.33,33.33h-33.33c-18.41,0-33.33-14.92-33.33-33.33v-33.33H133.33v33.33c0,18.41-14.92,33.33-33.33,33.33h-33.33c-18.41,0-33.33-14.92-33.33-33.33v-197.92c0-23.21,6.06-46.01,17.57-66.15l96.57-169c11.87-20.77,33.96-33.59,57.88-33.59ZM166.67,350c0,9.2-7.46,16.67-16.67,16.67s-16.67-7.46-16.67-16.67,7.46-16.67,16.67-16.67,16.67,7.46,16.67,16.67ZM533.33,350c0,9.2-7.46,16.67-16.67,16.67s-16.67-7.46-16.67-16.67,7.46-16.67,16.67-16.67,16.67,7.46,16.67,16.67Z"/></g></svg>