<?xml version="1.0" encoding="UTF-8"?>
<svg id="Layer_2" data-name="Layer 2" xmlns="http://www.w3.org/2000/svg" version="1.1" viewBox="0 0 666.7 566.7">
  <defs>
    <style>
      .cls-1 {
        fill: none;
        stroke: #34495e;
        stroke-linecap: round;
        stroke-linejoin: round;
        stroke-width: 66.7px;
      }
    </style>
  </defs>
  <g id="Layer_1-2" data-name="Layer 1-2">
    <path class="cls-1" d="M33.3,150l90.7,75.6c6,5,13.5,7.7,21.3,7.7h375.9c7.8,0,15.3-2.7,21.3-7.7l90.7-75.6M150,350h.3M516.7,350h.3M205.4,33.3h256c23.9,0,46,12.8,57.9,33.6l96.6,169c11.5,20.2,17.6,42.9,17.6,66.2v197.9c0,18.4-14.9,33.3-33.3,33.3h-33.3c-18.4,0-33.3-14.9-33.3-33.3v-33.3H133.3v33.3c0,18.4-14.9,33.3-33.3,33.3h-33.3c-18.4,0-33.3-14.9-33.3-33.3v-197.9c0-23.2,6.1-46,17.6-66.1l96.6-169c11.9-20.8,34-33.6,57.9-33.6h0ZM166.7,350c0,9.2-7.5,16.7-16.7,16.7s-16.7-7.5-16.7-16.7,7.5-16.7,16.7-16.7,16.7,7.5,16.7,16.7ZM533.3,350c0,9.2-7.5,16.7-16.7,16.7s-16.7-7.5-16.7-16.7,7.5-16.7,16.7-16.7,16.7,7.5,16.7,16.7Z"/>
  </g>
</svg>