<?xml version="1.0" encoding="UTF-8"?><svg id="Layer_2" xmlns="http://www.w3.org/2000/svg" width="398.92" height="719.45" viewBox="0 0 398.92 719.45"><defs><style>.cls-1{fill:#fff;stroke-width:0px;}</style></defs><g id="Layer_2-2"><g id="Layer_1-2"><path class="cls-1" d="M125.53,63.33C125.53,28.36,153.89,0,188.87,0s63.33,28.36,63.33,63.33-28.36,63.33-63.33,63.33h0c-34.96.02-63.31-28.31-63.33-63.27v-.07h-.01ZM334.1,505.33l-80.83-112.57-9.77-180.1c-2.23-42.9-60.77-48.3-113.37-52.63-31.5,53.33-82.67,152.5-104.17,194.6-5.7,11.17-1.85,24.84,8.83,31.4,11.58,7.17,26.79,3.59,33.96-7.99.16-.27.32-.53.48-.81l70.13-124,8.6,144.6,115.67,138.13,57.47,161.93c8.13,18.31,29.56,26.56,47.86,18.43,13.71-6.09,22.25-19.98,21.5-34.96-.09-2.27-.43-4.53-1-6.73-1-3.77-55.33-169.27-55.33-169.27l-.03-.03h0ZM133.63,432.67l52.7,62.9-11.17,52.93-107.57,142.83c-10.03,17.31-32.2,23.22-49.52,13.18-17.31-10.03-23.22-32.2-13.18-49.52.74-1.27,1.55-2.49,2.43-3.66l102.17-142.83,24.13-75.83h0ZM388.87,327.87c12.22,10.67,13.47,29.22,2.81,41.44-7.51,8.6-19.31,12.06-30.27,8.9-20.37-12.33-78.33-51.2-78.33-51.2l-3.47-64.2,109.27,65.07h-.01Z"/></g></g></svg>