<svg width="500" height="500" viewBox="0 0 500 500" xmlns="http://www.w3.org/2000/svg">
  <defs>
    <linearGradient id="blueGradient" x1="0%" y1="0%" x2="100%" y2="100%">
      <stop offset="0%" stop-color="#7A5FFF"/>
      <stop offset="100%" stop-color="#01C8FF"/>
    </linearGradient>
    <mask id="holeMask">
      <rect 
        width="500" 
        height="500" 
        fill="white"
      />
      <rect 
        x="190" 
        y="190" 
        width="125" 
        height="125" 
        rx="25" 
        ry="25" 
        fill="black" 
        transform="rotate(45 250 250)"
      />
    </mask>
  </defs>
  <path 
    d="
      M250,90 
      C265,90 280,100 290,110 
      L390,210 
      C400,220 410,235 410,250 
      C410,265 400,280 390,290 
      L290,390 

      L245,435 
      L205,390 
      L110,290 

      C100,280 90,265 90,250 
      C90,235 100,220 110,210 
      L210,110 
      C220,100 235,90 250,90 
      Z
    "
    fill="url(#blueGradient)"
    mask="url(#holeMask)"
  />
</svg>
