<?xml version="1.0" encoding="UTF-8"?>
<svg id="Layer_2" data-name="Layer 2" xmlns="http://www.w3.org/2000/svg" xmlns:xlink="http://www.w3.org/1999/xlink" viewBox="0 0 284.4 81.9">
  <defs>
    <style>
      .cls-1 {
        fill: #577dfe;
        fill-rule: evenodd;
      }

      .cls-2 {
        fill: url(#linear-gradient);
      }
    </style>
    <linearGradient id="linear-gradient" x1="0" y1="24.3" x2="284.4" y2="24.3" gradientUnits="userSpaceOnUse">
      <stop offset="0" stop-color="#7a5fff"/>
      <stop offset="1" stop-color="#01c8ff"/>
    </linearGradient>
  </defs>
  <g id="Layer_1-2" data-name="Layer 1">
    <path class="cls-1" d="M107,81.9h-34.96c-11.02,0-20.43-8.55-20.82-19.56s8.85-21.04,20.29-21.04h.76c1.47,0,2.83.99,3.09,2.44.35,1.9-1.11,3.56-2.95,3.56h-.45c-7.71,0-14.38,5.91-14.74,13.62-.38,8.19,6.17,14.98,14.28,14.98h35.36c1.47,0,2.83.99,3.09,2.44.35,1.9-1.11,3.56-2.95,3.56Z"/>
    <path class="cls-2" d="M73.9,29.5c-2.59,0-4.7-2.11-4.7-4.7s2.11-4.7,4.7-4.7,4.7,2.11,4.7,4.7-2.11,4.7-4.7,4.7ZM73.9,22.1c-1.49,0-2.7,1.21-2.7,2.7s1.21,2.7,2.7,2.7,2.7-1.21,2.7-2.7-1.21-2.7-2.7-2.7ZM144.4,44.7c0-1.66-1.34-3-3-3-3.02,0-4.5-.06-6.21-.12-2.22-.08-4.74-.18-11.19-.18-9.76,0-17.7-7.94-17.7-17.7s7.94-17.7,17.7-17.7c3.44,0,5.92.07,8.55.15,2.58.08,5.25.15,8.85.15,1.66,0,3-1.34,3-3s-1.34-3-3-3c-3.52,0-6.14-.08-8.68-.15-2.55-.07-5.19-.15-8.72-.15-13.07,0-23.7,10.63-23.7,23.7s10.63,23.7,23.7,23.7c6.33,0,8.79.09,10.96.17,1.7.06,3.31.12,6.44.12,1.66,0,3-1.34,3-3ZM169.3,48.2c-13.01,0-23.6-10.59-23.6-23.6S156.29,1,169.3,1s23.6,10.59,23.6,23.6-10.59,23.6-23.6,23.6ZM169.3,7c-9.7,0-17.6,7.9-17.6,17.6s7.9,17.6,17.6,17.6,17.6-7.9,17.6-17.6-7.9-17.6-17.6-17.6ZM284.4,45.6v-21.1c0-13.01-10.59-23.6-23.6-23.6s-23.6,10.59-23.6,23.6v21.1c0,1.66,1.34,3,3,3s3-1.34,3-3v-21.1c0-9.7,7.9-17.6,17.6-17.6s17.6,7.9,17.6,17.6v21.1c0,1.66,1.34,3,3,3s3-1.34,3-3ZM243.2,45.6v-21.1c0-13.01-10.59-23.6-23.6-23.6s-23.6,10.59-23.6,23.6v21.1c0,1.66,1.34,3,3,3s3-1.34,3-3v-21.1c0-9.7,7.9-17.6,17.6-17.6s17.6,7.9,17.6,17.6v21.1c0,1.66,1.34,3,3,3s3-1.34,3-3ZM47,24.5V3.5c0-1.66-1.34-3-3-3s-3,1.34-3,3v21c0,9.65-7.85,17.5-17.5,17.5S6,34.15,6,24.5V3.5c0-1.66-1.34-3-3-3S0,1.84,0,3.5v21c0,12.96,10.54,23.5,23.5,23.5s23.5-10.54,23.5-23.5ZM136.8,24.3c0-1.66-1.34-3-3-3h-10.1c-1.66,0-3,1.34-3,3s1.34,3,3,3h10.1c1.66,0,3-1.34,3-3ZM73.8,47.2c-13.01,0-23.6-10.59-23.6-23.6S60.79,0,73.8,0s23.6,10.59,23.6,23.6-10.59,23.6-23.6,23.6ZM73.8,6c-9.7,0-17.6,7.9-17.6,17.6s7.9,17.6,17.6,17.6,17.6-7.9,17.6-17.6-7.9-17.6-17.6-17.6Z"/>
  </g>
</svg>