<?xml version="1.0" encoding="UTF-8"?><svg id="Layer_2" xmlns="http://www.w3.org/2000/svg" width="101.86" height="101.86" viewBox="0 0 101.86 101.86"><defs><style>.cls-1{fill:#000;}.cls-1,.cls-2{stroke-width:0px;}.cls-2{fill:#fff;}</style></defs><g id="Layer_1-2"><circle class="cls-1" cx="50.93" cy="50.93" r="50.93"/><path class="cls-2" d="M25.85,14.98h20.76v3.56h-17.15v9.28h15.23v3.56h-15.23v13.68h-3.61V14.98Z"/><path class="cls-2" d="M25.25,73.13l3.61-.72c.72,4.28,3.44,6.48,7.97,6.48s7.41-2.08,7.41-5.05c0-2.6-2.36-4.4-8.14-6.08-7.01-2-10.02-4.96-10.02-9.12,0-4.76,3.93-7.72,10.22-7.72s9.82,2.8,11.06,8.16l-3.73.8c-.8-3.6-3.21-5.4-7.41-5.4-3.93,0-6.37,1.52-6.37,4.12,0,2.4,2.05,4.05,7.77,5.8,7.54,2.28,10.34,5.25,10.34,9.43,0,5.25-4.29,8.65-10.94,8.65s-10.78-3.27-11.78-9.35Z"/><path class="cls-2" d="M52.53,66.81c0-8.92,5.84-15.88,14.83-15.88s14.7,7,14.7,15.88c0,4.4-1.45,8.25-3.93,11,1.2,1.2,2.36,2.4,3.48,3.65l-2.56,2.52c-1.16-1.24-2.4-2.52-3.65-3.8-2.28,1.48-5.01,2.32-8.05,2.32-8.66-.01-14.83-6.65-14.83-15.69ZM72.68,77.53c-1.2-1.12-2.36-2.24-3.56-3.28l2.53-2.52c1.28,1.12,2.56,2.28,3.81,3.44,1.73-2.12,2.76-5,2.76-8.4,0-6.96-4.25-12.24-10.85-12.24s-10.9,5.28-10.9,12.24,4.61,12.16,10.9,12.16c1.96,0,3.76-.48,5.32-1.4Z"/></g></svg>