<?xml version="1.0" encoding="UTF-8"?>
<svg id="Layer_2" data-name="Layer 2" xmlns="http://www.w3.org/2000/svg" viewBox="0 0 225 225">
  <defs>
    <style>
      .cls-1 {
        fill: #fff;
      }
    </style>
  </defs>
  <g id="Layer_1-2" data-name="Layer 1">
    <path d="M121.06,0l22.98,4.5c36.08,10.08,66.84,41.18,76.67,77.28l4.28,22.22v17l-4.28,22.22c-9.84,36.14-40.54,67.19-76.67,77.28l-22.98,4.5h-16.99l-22.2-4.28c-36.08-9.84-67.16-40.62-77.23-76.72L.14,121c.32-5.57-.44-11.47,0-17C4.45,49.29,49.45,4.31,104.08,0h16.99ZM121.84,43.27c-56.25,1.11-71.96,79.59-62.81,123.3,37.13,5.65,95.19-1.38,115.51-37.55,21.6-38.44-9.34-86.6-52.71-85.75Z"/>
    <path class="cls-1" d="M121.84,43.27c43.36-.85,74.31,47.31,52.71,85.75-20.32,36.17-78.38,43.2-115.51,37.55-9.16-43.71,6.55-122.19,62.81-123.3ZM136.32,88.73l-10.76-21.71-10.94,21.03-22.53,11.94,21.93,10.56,12.03,22.44c3.26-5.87,6.05-17.42,10.46-22.04,2.71-2.84,21.49-9.62,21.51-11.45l-21.7-10.77Z"/>
    <path d="M136.32,88.73l21.7,10.77c-.02,1.83-18.81,8.61-21.51,11.45-4.41,4.62-7.2,16.17-10.46,22.04l-12.03-22.44-21.93-10.56,22.53-11.94,10.94-21.03,10.76,21.71Z"/>
  </g>
</svg>