<?xml version="1.0" encoding="UTF-8"?>
<svg id="Layer_1" data-name="Layer 1" xmlns="http://www.w3.org/2000/svg" version="1.1" xmlns:xlink="http://www.w3.org/1999/xlink" viewBox="0 0 148.8 143">
  <defs>
    <style>
      .cls-1 {
        fill: url(#linear-gradient);
      }

      .cls-1, .cls-2, .cls-3 {
        stroke-width: 0px;
      }

      .cls-2 {
        fill: #4051cc;
        fill-rule: evenodd;
      }

      .cls-3 {
        fill: #fff;
      }
    </style>
    <linearGradient id="linear-gradient" x1="10" y1="71.7" x2="208.2" y2="3.1" gradientTransform="translate(0 144) scale(1 -1)" gradientUnits="userSpaceOnUse">
      <stop offset="0" stop-color="#4163cc"/>
      <stop offset=".5" stop-color="#14b3c4"/>
      <stop offset=".9" stop-color="#00e1ac"/>
    </linearGradient>
  </defs>
  <circle class="cls-3" cx="75.5" cy="42.7" r="39"/>
  <polygon class="cls-3" points="135.2 109.2 76.4 137.8 12.3 103.9 74.6 77.8 135.2 109.2"/>
  <polygon class="cls-3" points="136.5 92.3 77.7 121 13.6 87.1 76 61 136.5 92.3"/>
  <polygon class="cls-3" points="135.2 76.2 76.4 104.8 12.3 70.9 74.6 44.8 135.2 76.2"/>
  <path class="cls-2" d="M90.9,7.7c13.9,5.9,23.6,19.6,23.6,35.6s-3.7,18.8-9.7,25.6c-.8-1.5-1.8-4.4-.4-8.3,1.6-4.6-1.1-10.5-4.4-12.9-1.8-1.4-4.7.3-6.4.6-3.5.6-5.7-1.1-7.5-6-3-8.2,2.9-12.7,6.3-14.1,3.4-1.5,6.6-3.8,8.8-2.7,1.5.7,1.7,2.4,2.2,2.8,1.4,1.1,2.9,1.8,4.6.4,2.2-1.9-3.9-7.8-7.5-7.5-4.1.3-4.4,2.2-6.6,3.5-2.2,1.3-5.9,1.4-5.4-2.1.5-4.3,5.8-.4,4.4-5.4-1.4-4,1.9-.6,3.3-2.6,1.4-2-1.2-3.4-2.7-1.8-1.5,1.5-3.4,0-2.7-3.7.2-.8.2-1.1.3-1.3h0ZM61.4,7.4c.3,1.3,1.1,4,2.3,4.9,1.6,1.2,2.5,3.6.4,4.5-2,.9-2.8,1.4-1.5,2,1.3.6.3,3.2-1.6,2.5-1.9-.7-4.3-1.7-4.5.4-.2,2.1-1.6,4.5-2.6,5.7-1.1,1.2-2.1,1.6-1.7,3.3.4,1.6-.7,2.9-1.3,1.5-.6-1.4-3.2-1.5-4.8,0,0,0-4.4,5-2.1,5.5,2.9.6,6.2.8,7.1,3.9.6,2,1.9,3.7,4.6,2.6,2.7-1.1,5.9-1.4,8.5,1.3s4.4-.4,7.2,5.7c2.9,3.9,10.2-2.6,6.2,9.4-2.5,7.4-5.4,3.8-6.1,6.9-1.1,5.2-9,12-9,12l-5.9-2.7s2.7-11.9,0-14c-2.7-2.2-5.6-8.6-4.9-11.6.7-3,2.4-4-1.5-6.2-4-2.2-3.2-4.2-6.2-4.9-2.4-.6-5.6,0-6.7.2,0-1.3.3-2.5.5-3.8l1.5-5.9c3.7-10.5,11.8-19,22.1-23.1h0ZM75.8,0C52,0,32.7,19.4,32.7,43.2s19.4,43.2,43.2,43.2,43.2-19.4,43.2-43.2S99.7,0,75.8,0Z"/>
  <path class="cls-1" d="M134.7,101.9l14,7.2-74.2,33.8L.5,103.2l14-6,6.4,3.4-.4.2c0,.2,0,.3,0,.5,0,.6-.5,1.2-1.2,1.2s-.9-.3-1.1-.7l-4.7,2.1,4.7,2.5v-.2c0-1.1.9-1.9,1.9-1.9s1.9.9,1.9,1.9-.4,1.4-1,1.7l9.8,5.2c0-.5.6-.9,1.1-.9s1.2.5,1.2,1.2-.1.6-.3.8l9.1,4.9c-.2-.3-.3-.7-.3-1,0-1.1.9-1.9,1.9-1.9s1.9.9,1.9,1.9-.8,1.9-1.9,1.9l13.6,7.3c.2-.9.9-1.6,1.9-1.6s1.9.9,1.9,1.9-.2,1-.5,1.3l14.1,7.5,8-3.7c-.3-.3-.5-.8-.5-1.3,0-1.1.9-1.9,1.9-1.9s1.8.8,1.9,1.7l30.2-13.7c0,0,0-.2,0-.3,0-.6.5-1.2,1.2-1.2s.7.2.9.5l6.7-3c-.9-.2-1.5-1-1.5-1.9s.9-1.9,1.9-1.9,1.9.9,1.9,1.9,0,.6-.2.9l6.3-2.9c-.6-.3-1-1-1-1.7s0-.6.2-.8l-4.6-2.3,6.5-3h0ZM95.6,122.6c0-1.1-.9-1.9-1.9-1.9s-1.9.9-1.9,1.9.9,1.9,1.9,1.9,1.9-.9,1.9-1.9ZM109.1,119.3c0-1.1-.9-1.9-1.9-1.9s-1.9.9-1.9,1.9.9,1.9,1.9,1.9,1.9-.9,1.9-1.9ZM117.5,112.2c0-1.1-.9-1.9-1.9-1.9s-1.9.9-1.9,1.9.9,1.9,1.9,1.9,1.9-.9,1.9-1.9ZM72.2,129.7c0-1.1-.9-1.9-1.9-1.9s-1.9.9-1.9,1.9.9,1.9,1.9,1.9,1.9-.9,1.9-1.9ZM30.7,107.1c.5,0,1-.2,1.4-.5l-3.3-1.8c0,.1,0,.3,0,.4,0,1.1.9,1.9,1.9,1.9h0ZM54.5,120.8c.8,0,1.5-.5,1.8-1.2l-3.4-1.8c-.2.3-.3.7-.3,1,0,1.1.9,2,1.9,2h0ZM36.1,111.3c0,1.1.9,1.9,1.9,1.9s1.9-.9,1.9-1.9,0-.4,0-.6l-2.4-1.3c-.8.2-1.4,1-1.4,1.9h0ZM148.8,92.4l-74.2,33.8L.5,86.5l12.9-5.6,5.7,3,.7.4,3,1.6,2.5,7.4,5.9,3.2-2.5-7.4,3.7,2,2.5,7.4,6.1,3.3-2.5-7.4,3.7,2,2.5,7.4,5.8,3.1-2.5-7.4,3.7,2,2.5,7.4,6.1,3.3-2.5-7.4,3.7,2,2.5,7.4,5.8,3.1-2.5-7.4,3.7,2,2.5,7.4,1.2.7,3.6-1.7-2.1-6,2.6-1.2,2.1,6,4.4-2-2.1-6,2.6-1.2,2.1,6,4.9-2.2-2.1-6,2.6-1.2,2.1,6,4.3-2-2.1-6,2.6-1.2,2.1,6,5.1-2.3-2.1-6,2.6-1.2,2.1,6,4.9-2.2-2.1-6,2.6-1.2,2.1,6,4.3-2-2.1-6,2.6-1.2,2.1,6,4.9-2.2-2.1-6,1.1-.5,1.5-.7,5.1-2.3,13.5,6.9h0ZM13.6,87l8.1,4.3-2.3-6.8-5.8,2.5h0ZM132.2,93.7l3.6-1.7-5-2.6,1.4,4.3ZM88.6,126.2c0-1.5-2.3-1.5-2.3,0s2.3,1.5,2.3,0ZM78.7,132c0-1.5-2.3-1.5-2.3,0s2.3,1.5,2.3,0ZM50.2,120c0-1.5-2.3-1.5-2.3,0s2.3,1.5,2.3,0ZM59,122.6c0-1.5-2.3-1.5-2.3,0s2.3,1.5,2.3,0ZM27.1,107.8c0-1.5-2.3-1.5-2.3,0s2.3,1.5,2.3,0ZM102,122.3c0-1.5-2.3-1.5-2.3,0s2.3,1.5,2.3,0ZM111.4,114.6c0-1.5-2.3-1.5-2.3,0s2.3,1.5,2.3,0ZM65.9,125.7c0-1.5-2.3-1.5-2.3,0s2.3,1.5,2.3,0ZM116.3,60.8c-.2.4-.3.8-.5,1.1,0,.1-.1.2-.2.4-.6,1.2-1.2,2.4-1.8,3.6l21.4,10.3-61,27.7L13,71l22.2-9.8s0,0,0-.1c-.2-.5-.4-1-.6-1.6,0-.3-.2-.5-.3-.8,0-.2-.2-.5-.3-.7-.3-.8-.5-1.5-.7-2.3h0S0,70.5,0,70.5l16.8,9,6.4,3.4,4.2,2.3,3.7,2,6.1,3.3,3.7,2,5.8,3.1,3.7,2,6.1,3.3,3.7,2,5.9,3.2,3.7,2,4.3,2.3,1.4-.7,2.6-1.2,4.4-2,2.6-1.2,4.9-2.2,2.6-1.2,4.3-2,2.6-1.2,5.1-2.3,2.6-1.2,4.9-2.2,2.6-1.2,4.3-2,2.6-1.2,3.7-1.7,1.2-.5,2.6-1.2,2.8-1.3,16.2-7.4-31.9-15.7h0Z"/>
</svg>